ffmpeg version N-55863-g9f38fac053-static https://johnvansickle.com/ffmpeg/  Copyright (c) 2000-2021 the FFmpeg developers
  built with gcc 8 (Debian 8.3.0-6)
  configuration: --enable-gpl --enable-version3 --enable-static --disable-debug --disable-ffplay --disable-indev=sndio --disable-outdev=sndio --cc=gcc --enable-fontconfig --enable-frei0r --enable-gnutls --enable-gmp --enable-libgme --enable-gray --enable-libaom --enable-libfribidi --enable-libass --enable-libvmaf --enable-libfreetype --enable-libmp3lame --enable-libopencore-amrnb --enable-libopencore-amrwb --enable-libopenjpeg --enable-librubberband --enable-libsoxr --enable-libspeex --enable-libsrt --enable-libvorbis --enable-libopus --enable-libtheora --enable-libvidstab --enable-libvo-amrwbenc --enable-libvpx --enable-libwebp --enable-libx264 --enable-libx265 --enable-libxml2 --enable-libdav1d --enable-libxvid --enable-libzvbi --enable-libzimg
  libavutil      56. 64.100 / 56. 64.100
  libavcodec     58.119.100 / 58.119.100
  libavformat    58. 65.101 / 58. 65.101
  libavdevice    58. 11.103 / 58. 11.103
  libavfilter     7.100.100 /  7.100.100
  libswscale      5.  8.100 /  5.  8.100
  libswresample   3.  8.100 /  3.  8.100
  libpostproc    55.  8.100 / 55.  8.100
Input #0, mov,mp4,m4a,3gp,3g2,mj2, from '/home/yiaapc5/public_html/f_data/data_userfiles/user_uploads/3995073565/v/1612724383.mp4':
  Metadata:
    major_brand     : mp42
    minor_version   : 0
    compatible_brands: isommp42
    encoder         : Google
  Duration: 00:01:07.64, start: 0.000000, bitrate: 2185 kb/s
    Stream #0:0(und): Video: h264 (High) (avc1 / 0x31637661), yuv420p(tv, bt709), 1280x720 [SAR 1:1 DAR 16:9], 2054 kb/s, 29.97 fps, 29.97 tbr, 11988 tbn, 59.94 tbc (default)
    Metadata:
      handler_name    : ISO Media file produced by Google Inc.
      vendor_id       : [0][0][0][0]
    Stream #0:1(fra): Audio: aac (LC) (mp4a / 0x6134706D), 44100 Hz, stereo, fltp, 128 kb/s (default)
    Metadata:
      handler_name    : ISO Media file produced by Google Inc.
      vendor_id       : [0][0][0][0]
Codec AVOption rc_eq (Set rate control equation. When computing the expression, besides the standard functions defined in the section 'Expression Evaluation', the following functions are available: bits2qp(bits), qp2bits(qp). Also the following constants are available: iTex pTex tex mv fCode iCount mcVar var isI isP isB avgQP qComp avgIITex avgPITex avgPPTex avgBPTex avgTex.) specified for output file #0 (/home/yiaapc5/public_html/f_data/data_userfiles/user_media/3995073565/v/ef31bfcb7b1590476144b10ccae4f553.mob.nomob.mp4) has not been used for any stream. The most likely reason is either wrong type (e.g. a video option with no video streams) or that it is a private option of some encoder which was not actually used for any stream.
Stream mapping:
  Stream #0:0 -> #0:0 (h264 (native) -> h264 (libx264))
  Stream #0:1 -> #0:1 (aac (native) -> aac (native))
Press [q] to stop, [?] for help
[libx264 @ 0x63b1a00] Application has requested 32 threads. Using a thread count greater than 16 is not recommended.
[libx264 @ 0x63b1a00] using SAR=136/135
[libx264 @ 0x63b1a00] frame MB size (30x17) > level limit (396)
[libx264 @ 0x63b1a00] VBV bitrate (10000) > level limit (768)
[libx264 @ 0x63b1a00] VBV buffer (10000) > level limit (2000)
[libx264 @ 0x63b1a00] MB rate (15284) > level limit (11880)
[libx264 @ 0x63b1a00] using cpu capabilities: MMX2 SSE2Fast SSSE3 SSE4.2 AVX
[libx264 @ 0x63b1a00] profile Constrained Baseline, level 1.3, 4:2:0, 8-bit
[libx264 @ 0x63b1a00] 264 - core 161 r3040 35417dc - H.264/MPEG-4 AVC codec - Copyleft 2003-2021 - http://www.videolan.org/x264.html - options: cabac=0 ref=1 deblock=1:0:0 analyse=0x1:0 me=hex subme=1 psy=1 psy_rd=1.00:0.00 mixed_ref=0 me_range=16 chroma_me=1 trellis=0 8x8dct=0 cqm=0 deadzone=21,11 fast_pskip=1 chroma_qp_offset=0 threads=32 lookahead_threads=2 sliced_threads=0 nr=0 decimate=1 interlaced=0 bluray_compat=0 constrained_intra=0 bframes=0 weightp=0 keyint=300 keyint_min=25 scenecut=40 intra_refresh=0 rc_lookahead=30 rc=abr mbtree=1 bitrate=1000 ratetol=1.0 qcomp=0.60 qpmin=10 qpmax=51 qpstep=4 vbv_maxrate=10000 vbv_bufsize=10000 nal_hrd=none filler=0 ip_ratio=1.41 aq=1:1.00
Output #0, mp4, to '/home/yiaapc5/public_html/f_data/data_userfiles/user_media/3995073565/v/ef31bfcb7b1590476144b10ccae4f553.mob.nomob.mp4':
  Metadata:
    major_brand     : mp42
    minor_version   : 0
    compatible_brands: isommp42
    encoder         : Lavf58.65.101
    Stream #0:0(und): Video: h264 (avc1 / 0x31637661), yuv420p(tv, bt709, progressive), 480x272 [SAR 136:135 DAR 16:9], q=2-31, 1000 kb/s, 29.97 fps, 11988 tbn (default)
    Metadata:
      handler_name    : ISO Media file produced by Google Inc.
      vendor_id       : [0][0][0][0]
      encoder         : Lavc58.119.100 libx264
    Side data:
      cpb: bitrate max/min/avg: 10000000/0/1000000 buffer size: 10000000 vbv_delay: N/A
    Stream #0:1(fra): Audio: aac (LC) (mp4a / 0x6134706D), 44100 Hz, stereo, fltp, 128 kb/s (default)
    Metadata:
      handler_name    : ISO Media file produced by Google Inc.
      vendor_id       : [0][0][0][0]
      encoder         : Lavc58.119.100 aac
frame=    1 fps=0.0 q=0.0 size=       0kB time=00:00:00.41 bitrate=   0.9kbits/s speed=10.7x    frame=  173 fps=0.0 q=27.0 size=     256kB time=00:00:06.06 bitrate= 346.1kbits/s speed=11.2x    frame=  368 fps=354 q=27.0 size=    1280kB time=00:00:12.56 bitrate= 834.8kbits/s speed=12.1x    frame=  559 fps=363 q=26.0 size=    2048kB time=00:00:18.92 bitrate= 886.6kbits/s speed=12.3x    frame=  755 fps=370 q=26.0 size=    3072kB time=00:00:25.47 bitrate= 988.0kbits/s speed=12.5x    frame=  962 fps=379 q=25.0 size=    3840kB time=00:00:32.13 bitrate= 978.9kbits/s speed=12.6x    frame= 1158 fps=381 q=25.0 size=    4864kB time=00:00:38.56 bitrate=1033.1kbits/s speed=12.7x    frame= 1358 fps=383 q=26.0 size=    5888kB time=00:00:45.53 bitrate=1059.3kbits/s speed=12.8x    frame= 1561 fps=386 q=26.0 size=    6656kB time=00:00:52.03 bitrate=1047.9kbits/s speed=12.9x    frame= 1758 fps=387 q=26.0 size=    7680kB time=00:00:59.00 bitrate=1066.3kbits/s speed=  13x    frame= 1960 fps=389 q=26.0 size=    8704kB time=00:01:05.50 bitrate=1088.5kbits/s speed=  13x    frame= 2027 fps=388 q=-1.0 Lsize=    9306kB time=00:01:07.61 bitrate=1127.5kbits/s speed=12.9x    
video:8178kB audio:1070kB subtitle:0kB other streams:0kB global headers:0kB muxing overhead: 0.620585%
[libx264 @ 0x63b1a00] frame I:14    Avg QP:18.28  size:  7992
[libx264 @ 0x63b1a00] frame P:2013  Avg QP:22.10  size:  4104
[libx264 @ 0x63b1a00] mb I  I16..4: 38.1%  0.0% 61.9%
[libx264 @ 0x63b1a00] mb P  I16..4:  6.0%  0.0%  0.0%  P16..4: 77.2%  0.0%  0.0%  0.0%  0.0%    skip:16.8%
[libx264 @ 0x63b1a00] final ratefactor: 19.89
[libx264 @ 0x63b1a00] coded y,uvDC,uvAC intra: 40.6% 57.1% 27.1% inter: 37.8% 28.0% 2.6%
[libx264 @ 0x63b1a00] i16 v,h,dc,p: 27% 38% 14% 21%
[libx264 @ 0x63b1a00] i4 v,h,dc,ddl,ddr,vr,hd,vl,hu: 24% 29% 14%  6%  6%  5%  7%  4%  6%
[libx264 @ 0x63b1a00] i8c dc,h,v,p: 41% 32% 17% 10%
[libx264 @ 0x63b1a00] kb/s:990.50
[aac @ 0x639cf00] Qavg: 1888.677
